<?xml version="1.0" encoding="UTF-8"?>
<!-- Flat preview of ic_launcher_foreground.xml (LuhaRide layered emblem) -->
<svg xmlns="http://www.w3.org/2000/svg" width="512" height="512" viewBox="0 0 108 108">
  <rect width="108" height="108" fill="#FFFFFF"/>
  <g transform="translate(0,-8)">
    <g transform="translate(54,54) scale(0.76) translate(-54,-54)">
      <path fill="#134E4A" d="M 0,78 C 14,68 26,66 38,61 C 50,55 62,57 74,50 C 86,45 98,52 108,46 L 108,108 L 0,108 Z"/>
      <path fill="#CCFBF1" d="M 72,49 C 76,44 82,43 88,46 C 84,50 78,52 72,49 Z"/>
      <path fill="#E0F2F1" d="M 28,60 C 32,56 38,55 42,58 C 38,62 32,63 28,60 Z"/>
      <path fill="#0F766E" d="M 0,74 C 8,69 14,62 22,56 C 28,52 34,54 38,50 C 42,46 44,42 46,40 C 48,41 52,46 56,47 C 60,46 66,38 72,36 C 78,34 86,40 94,48 C 100,52 105,56 108,59 L 108,108 L 0,108 Z"/>
      <path fill="none" stroke="#5EEAD4" stroke-opacity="0.45" stroke-width="2" stroke-linecap="round" d="M 18,58 Q 46,42 78,38"/>
      <path fill="none" stroke="#334155" stroke-width="8.5" stroke-linecap="round" d="M 12,102 Q 50,77 100,54"/>
      <path fill="none" stroke="#475569" stroke-width="6" stroke-linecap="round" d="M 12,102 Q 50,77 100,54"/>
      <path fill="none" stroke="#F1F5F9" stroke-width="4" stroke-linecap="round" d="M 12,102 Q 50,77 100,54"/>
      <ellipse cx="58" cy="96.5" rx="19" ry="2.75" fill="#0F172A" fill-opacity="0.22"/>
      <path fill="#FACC15" d="M 37,65.5 C 36,66 35,68 35,70 L 34.5,88.5 Q 34.5,93.5 39,94.5 L 69,94.5 Q 73.5,94 73.5,89 L 73,72 C 72.5,64.5 68,62 63.5,62 L 44,62 C 40,62 37,63 37,65.5 Z"/>
      <path fill="#EAB308" d="M 40,57.5 L 68,57.5 L 71.5,62 L 37,62 Z"/>
      <rect x="41.5" y="52.5" width="25" height="4.2" rx="0.5" fill="#DC2626"/>
      <rect x="42.1" y="53.1" width="23.8" height="3" rx="0.3" fill="#EF4444"/>
      <rect x="39.5" y="68.5" width="9.5" height="6.5" rx="0.4" fill="#0F766E"/>
      <rect x="59" y="68.5" width="9.5" height="6.5" rx="0.4" fill="#0F766E"/>
      <circle cx="45.5" cy="94.5" r="4.8" fill="#1E293B"/>
      <circle cx="64.5" cy="94.5" r="4.8" fill="#1E293B"/>
      <circle cx="45.5" cy="94.5" r="4.2" fill="#334155"/>
      <circle cx="64.5" cy="94.5" r="4.2" fill="#334155"/>
      <circle cx="45.5" cy="94.5" r="2.4" fill="#64748B"/>
      <circle cx="64.5" cy="94.5" r="2.4" fill="#64748B"/>
      <path fill="#FACC15" d="M 54,20 C 46.5,20 40.5,26.2 40.5,33.5 C 40.5,41.5 54,53.2 54,53.2 C 54,53.2 67.5,41.5 67.5,33.5 C 67.5,26.2 61.5,20 54,20 Z"/>
      <circle cx="54" cy="29.5" r="4.1" fill="#FFFFFF"/>
    </g>
  </g>
</svg>
