<?xml version="1.0" encoding="UTF-8"?>
<!-- Flat preview: front-view taxi + hills (ic_launcher_foreground.xml) -->
<svg xmlns="http://www.w3.org/2000/svg" width="512" height="512" viewBox="0 0 108 108">
  <rect width="108" height="108" fill="#FFFFFF"/>
  <g transform="translate(0,-8)">
    <g transform="translate(54,54) scale(0.76) translate(-54,-54)">
      <path fill="#134E4A" d="M 0,78 C 14,68 26,66 38,61 C 50,55 62,57 74,50 C 86,45 98,52 108,46 L 108,108 L 0,108 Z"/>
      <path fill="#CCFBF1" d="M 72,49 C 76,44 82,43 88,46 C 84,50 78,52 72,49 Z"/>
      <path fill="#E0F2F1" d="M 28,60 C 32,56 38,55 42,58 C 38,62 32,63 28,60 Z"/>
      <path fill="#0F766E" d="M 0,74 C 8,69 14,62 22,56 C 28,52 34,54 38,50 C 42,46 44,42 46,40 C 48,41 52,46 56,47 C 60,46 66,38 72,36 C 78,34 86,40 94,48 C 100,52 105,56 108,59 L 108,108 L 0,108 Z"/>
      <path fill="none" stroke="#5EEAD4" stroke-opacity="0.45" stroke-width="2" d="M 18,58 Q 46,42 78,38"/>
      <path fill="none" stroke="#334155" stroke-width="8.5" stroke-linecap="round" d="M 12,102 Q 50,77 100,54"/>
      <path fill="none" stroke="#475569" stroke-width="6" stroke-linecap="round" d="M 12,102 Q 50,77 100,54"/>
      <path fill="none" stroke="#F1F5F9" stroke-width="4" stroke-linecap="round" d="M 12,102 Q 50,77 100,54"/>
      <ellipse cx="54" cy="96.2" rx="17.5" ry="2.3" fill="#0F172A" fill-opacity="0.26"/>
      <path fill="#FACC15" stroke="#B45309" stroke-opacity="0.4" stroke-width="0.75" d="M 40,91.8 L 68,91.8 L 68.5,69 C 68.5,61 65,56 60,54.6 L 54,53.8 L 48,54.6 C 43,56 39.5,61 39.5,69 Z"/>
      <rect x="48.8" y="46.5" width="10.4" height="5.6" rx="1.1" fill="#171717"/>
      <rect x="49.5" y="47.3" width="9" height="3.6" rx="0.55" fill="#FBBF24"/>
      <path fill="#0F766E" stroke="#FFFFFF" stroke-opacity="0.45" stroke-width="0.65" d="M 45.2,56.8 L 62.8,56.8 L 61.8,68.2 L 46.2,68.2 Z"/>
      <line x1="44" y1="70.5" x2="64" y2="70.5" stroke="#CA8A04" stroke-opacity="0.5" stroke-width="0.55"/>
      <rect x="51" y="77.8" width="6" height="2.8" fill="#292524" fill-opacity="0.65"/>
      <circle cx="45.5" cy="73.2" r="2.65" fill="#FEFCE8"/>
      <circle cx="62.5" cy="73.2" r="2.65" fill="#FEFCE8"/>
      <circle cx="46" cy="93.9" r="5.1" fill="#1E293B"/>
      <circle cx="62" cy="93.9" r="5.1" fill="#1E293B"/>
      <circle cx="46" cy="93.9" r="4.5" fill="#334155"/>
      <circle cx="62" cy="93.9" r="4.5" fill="#334155"/>
      <circle cx="46" cy="93.9" r="2.7" fill="#64748B"/>
      <circle cx="62" cy="93.9" r="2.7" fill="#64748B"/>
      <path fill="#FACC15" d="M 54,20 C 46.5,20 40.5,26.2 40.5,33.5 C 40.5,41.5 54,53.2 54,53.2 C 54,53.2 67.5,41.5 67.5,33.5 C 67.5,26.2 61.5,20 54,20 Z"/>
      <circle cx="54" cy="29.5" r="4.1" fill="#FFFFFF"/>
    </g>
  </g>
</svg>
