<?xml version="1.0" encoding="UTF-8"?>
<svg xmlns="http://www.w3.org/2000/svg" width="108" height="108" viewBox="0 0 108 108">
  <rect width="108" height="108" fill="#ffffff"/>
  <g transform="translate(54,54) scale(0.76) translate(-54,-54) translate(0,-8)">
    <path fill="#e2e8f0" fill-opacity="0.4" d="M 0,0 L 108,0 L 108,56 L 0,56 Z"/>
    <path fill="#2D5A3F" d="M 0,108 L 0,72 C 22,58 40,64 58,52 C 76,42 92,48 108,40 L 108,108 Z"/>
    <path fill="#15803D" d="M 0,108 L 0,86 C 14,74 28,78 42,68 C 52,62 62,66 74,58 C 86,52 96,56 108,50 L 108,108 Z"/>
    <path fill="#14532D" fill-opacity="0.4" d="M 0,108 L 0,94 C 24,88 48,92 72,84 C 90,80 100,86 108,82 L 108,108 Z"/>
    <path fill="none" stroke="#86EFAC" stroke-opacity="0.35" stroke-width="2.2" stroke-linecap="round" d="M 8,78 Q 38,62 68,58 Q 88,54 104,52"/>
    <path fill="none" stroke="#BBF7D0" stroke-opacity="0.22" stroke-width="1.6" stroke-linecap="round" d="M 20,88 Q 48,80 82,74"/>
    <path fill="#0A0A0A" d="M 0,108 L 0,70 L 14,52 L 26,62 L 44,38 L 58,48 L 76,30 L 90,44 L 102,36 L 108,42 L 108,108 Z"/>
    <path fill="#171717" fill-opacity="0.92" d="M 0,108 L 0,78 L 32,58 L 52,68 L 72,52 L 108,62 L 108,108 Z"/>
    <path fill="#F8FAFC" d="M 38,44 L 44,34 L 50,46 Z"/>
    <path fill="#F8FAFC" d="M 70,32 L 76,24 L 82,36 Z"/>
    <path fill="#F8FAFC" d="M 96,34 L 102,28 L 108,38 Z"/>
    <path fill="none" stroke="#1C1917" stroke-width="9.2" stroke-linecap="round" d="M 11,103 Q 50,74 101,53"/>
    <path fill="none" stroke="#F5C518" stroke-width="6.8" stroke-linecap="round" d="M 11,103 Q 50,74 101,53"/>
    <path fill="none" stroke="#FFFAD1" stroke-width="3.2" stroke-linecap="round" d="M 11,103 Q 50,74 101,53"/>
    <path fill="none" stroke="#CA8A04" stroke-opacity="0.55" stroke-width="1.15" stroke-linecap="round" d="M 22,95 Q 52,72 90,56"/>
    <g transform="translate(9,-1.5)">
      <path fill="#0f172a" fill-opacity="0.28" d="M 30.5,95.1 a 23.5,2.25 0 1,0 47,0 a 23.5,2.25 0 1,0 -47,0"/>
      <path fill="#EAB308" d="M 32.9,95.15 L 32.9,86.5 Q 32.45,78 36.6,72.5 Q 41.1,65 46,60.5 L 51.7,56 Q 57.8,53.5 64,54.8 Q 69.8,56 71.9,61 L 74.3,70 L 75.1,80 L 75.1,95.15 L 67.3,95.15 Q 64.9,88.5 59.8,88.5 Q 54.75,88.5 52.2,95.15 L 46.8,95.15 Q 44.4,88.5 39.4,88.5 Q 35.3,88.5 32.9,95.15 Z"/>
      <path fill="#a16212" fill-opacity="0.22" d="M 33.5,88.8 L 74.5,88.8 L 74.5,95.15 L 33.5,95.15 Z"/>
      <path fill="none" stroke="#713F12" stroke-opacity="0.45" stroke-width="0.7" d="M 32.9,95.15 L 32.9,86.5 Q 32.45,78 36.6,72.5 Q 41.1,65 46,60.5 L 51.7,56 Q 57.8,53.5 64,54.8 Q 69.8,56 71.9,61 L 74.3,70 L 75.1,80 L 75.1,95.15 L 67.3,95.15 Q 64.9,88.5 59.8,88.5 Q 54.75,88.5 52.2,95.15 L 46.8,95.15 Q 44.4,88.5 39.4,88.5 Q 35.3,88.5 32.9,95.15 Z"/>
      <path fill="none" stroke="#FFFFFF" stroke-opacity="0.5" stroke-width="0.45" d="M 34.2,85.2 L 73.8,85.2"/>
      <path fill="#171717" d="M 51.2,51.2 L 66.2,51.2 L 66.2,56.1 L 51.2,56.1 Z"/>
      <path fill="#FCD34D" d="M 51.85,52 L 65.55,52 L 65.55,55.4 L 51.85,55.4 Z"/>
      <path fill="#1E3A5F" d="M 42,71.2 L 48,57.8 L 69.5,56.8 L 73.2,66.8 Z"/>
      <path fill="none" stroke="#FFFFFF" stroke-opacity="0.5" stroke-width="0.55" d="M 42,71.2 L 48,57.8 L 69.5,56.8 L 73.2,66.8 Z"/>
      <path fill="none" stroke="#0F172A" stroke-opacity="0.35" stroke-width="0.7" d="M 56.8,58.5 L 56.8,71"/>
      <path fill="#0A0A0A" d="M 31.2,69.5 L 33.7,69.5 L 33.7,71.35 L 31.2,71.35 Z"/>
      <path fill="#F8FAFC" d="M 32.75,73.375 m -2.25,0 a 2.25,1.375 0 1,0 4.5,0 a 2.25,1.375 0 1,0 -4.5,0"/>
      <path fill="#B91C1C" d="M 73.85,74.5 L 76.1,74.5 L 76.1,81.5 L 73.85,81.5 Z"/>
      <path fill="#0A0F18" d="M 40.5,94.05 A 4.35,4.35 0 1,1 36.15,94.05 A 4.35,4.35 0 1,1 40.5,94.05"/>
      <path fill="#1E293B" d="M 40.5,94.05 A 3.92,3.92 0 1,1 36.58,94.05 A 3.92,3.92 0 1,1 40.5,94.05"/>
      <path fill="#94A3B8" d="M 40.5,94.05 A 2.78,2.78 0 1,1 37.72,94.05 A 2.78,2.78 0 1,1 40.5,94.05"/>
      <path fill="#CBD5E1" d="M 40.5,94.05 A 2.26,2.26 0 1,1 38.24,94.05 A 2.26,2.26 0 1,1 40.5,94.05"/>
      <path fill="#475569" d="M 40.5,94.05 A 1.04,1.04 0 1,1 39.46,94.05 A 1.04,1.04 0 1,1 40.5,94.05"/>
      <path fill="#0A0F18" d="M 62.8,94.05 A 4.35,4.35 0 1,1 58.45,94.05 A 4.35,4.35 0 1,1 62.8,94.05"/>
      <path fill="#1E293B" d="M 62.8,94.05 A 3.92,3.92 0 1,1 58.88,94.05 A 3.92,3.92 0 1,1 62.8,94.05"/>
      <path fill="#94A3B8" d="M 62.8,94.05 A 2.78,2.78 0 1,1 60.02,94.05 A 2.78,2.78 0 1,1 62.8,94.05"/>
      <path fill="#CBD5E1" d="M 62.8,94.05 A 2.26,2.26 0 1,1 60.54,94.05 A 2.26,2.26 0 1,1 62.8,94.05"/>
      <path fill="#475569" d="M 62.8,94.05 A 1.04,1.04 0 1,1 61.76,94.05 A 1.04,1.04 0 1,1 62.8,94.05"/>
    </g>
    <path fill="#FFD60A" d="M 22,14.5 C 14.5,14.5 8.5,20.7 8.5,28 C 8.5,36 22,47.7 22,47.7 C 22,47.7 35.5,36 35.5,28 C 35.5,20.7 29.5,14.5 22,14.5 Z"/>
    <path fill="none" stroke="#1C1917" stroke-opacity="0.55" stroke-width="0.9" d="M 22,14.5 C 14.5,14.5 8.5,20.7 8.5,28 C 8.5,36 22,47.7 22,47.7 C 22,47.7 35.5,36 35.5,28 C 35.5,20.7 29.5,14.5 22,14.5 Z"/>
    <path fill="#0A0A0A" d="M 22,26.5 A 3.65,3.65 0 1,1 22.01,26.5 Z"/>
  </g>
</svg>
