<?xml version="1.0" encoding="UTF-8"?>
<!-- Flat preview of ic_launcher_foreground.xml (LuhaRide layered emblem) -->
<svg xmlns="http://www.w3.org/2000/svg" width="512" height="512" viewBox="0 0 108 108">
  <rect width="108" height="108" fill="#FFFFFF"/>
  <g transform="translate(0,-8)">
    <g transform="translate(54,54) scale(0.76) translate(-54,-54)">
      <path fill="#134E4A" d="M 0,78 C 14,68 26,66 38,61 C 50,55 62,57 74,50 C 86,45 98,52 108,46 L 108,108 L 0,108 Z"/>
      <path fill="#CCFBF1" d="M 72,49 C 76,44 82,43 88,46 C 84,50 78,52 72,49 Z"/>
      <path fill="#E0F2F1" d="M 28,60 C 32,56 38,55 42,58 C 38,62 32,63 28,60 Z"/>
      <path fill="#0F766E" d="M 0,74 C 8,69 14,62 22,56 C 28,52 34,54 38,50 C 42,46 44,42 46,40 C 48,41 52,46 56,47 C 60,46 66,38 72,36 C 78,34 86,40 94,48 C 100,52 105,56 108,59 L 108,108 L 0,108 Z"/>
      <path fill="none" stroke="#5EEAD4" stroke-opacity="0.45" stroke-width="2" stroke-linecap="round" d="M 18,58 Q 46,42 78,38"/>
      <path fill="none" stroke="#334155" stroke-width="8.5" stroke-linecap="round" d="M 12,102 Q 50,77 100,54"/>
      <path fill="none" stroke="#475569" stroke-width="6" stroke-linecap="round" d="M 12,102 Q 50,77 100,54"/>
      <path fill="none" stroke="#F1F5F9" stroke-width="4" stroke-linecap="round" d="M 12,102 Q 50,77 100,54"/>
      <ellipse cx="53" cy="94.2" rx="21.5" ry="2.6" fill="#0F172A" fill-opacity="0.24"/>
      <path fill="#FACC15" stroke="#B45309" stroke-opacity="0.35" stroke-width="0.85" d="M 33,92.8 L 72,92.8 L 72.8,74.5 C 72.2,64.5 68.5,59.5 63,57.8 L 59.2,54.2 L 48.8,54.2 L 44.5,57.8 C 38.2,59.5 33.8,64.5 33,74.5 L 33,92.8 Z"/>
      <path fill="#CA8A04" fill-opacity="0.55" d="M 44,57.5 L 63.5,57.5 L 64.5,59.2 L 43,59.2 Z"/>
      <rect x="47.5" y="46.2" width="13" height="6.2" fill="#171717"/>
      <rect x="48.2" y="47" width="11.6" height="3.6" fill="#FBBF24"/>
      <path fill="#0F766E" stroke="#FFFFFF" stroke-opacity="0.4" stroke-width="0.55" d="M 40.5,60.5 L 45.2,58.2 L 61.8,58.2 L 66.2,60.5 L 64.5,71.2 L 42.2,71.2 Z"/>
      <line x1="53.5" y1="60" x2="53.5" y2="91.5" stroke="#B45309" stroke-opacity="0.25" stroke-width="0.5"/>
      <ellipse cx="32.8" cy="74.6" rx="1.6" ry="2.1" fill="#FEFCE8"/>
      <circle cx="45.8" cy="94.4" r="4.8" fill="#1E293B"/>
      <circle cx="62.2" cy="94.4" r="4.8" fill="#1E293B"/>
      <circle cx="45.8" cy="94.4" r="4.2" fill="#334155"/>
      <circle cx="62.2" cy="94.4" r="4.2" fill="#334155"/>
      <circle cx="45.8" cy="94.4" r="2.4" fill="#64748B"/>
      <circle cx="62.2" cy="94.4" r="2.4" fill="#64748B"/>
      <path fill="#FACC15" d="M 54,20 C 46.5,20 40.5,26.2 40.5,33.5 C 40.5,41.5 54,53.2 54,53.2 C 54,53.2 67.5,41.5 67.5,33.5 C 67.5,26.2 61.5,20 54,20 Z"/>
      <circle cx="54" cy="29.5" r="4.1" fill="#FFFFFF"/>
    </g>
  </g>
</svg>
