<?xml version="1.0" encoding="UTF-8"?>
<!-- Mirror: ic_launcher_foreground.xml — scale 0.76 @ (54,54), then translateY -8 -->
<svg xmlns="http://www.w3.org/2000/svg" width="512" height="512" viewBox="0 0 108 108">
  <rect width="108" height="108" fill="#FFFFFF"/>
  <g transform="translate(0,-8)">
    <g transform="translate(54,54) scale(0.76) translate(-54,-54)">
      <path fill="#0F766E" d="M 0,73 C 6,68 12,60 20,54 C 26,50 32,52 36,48 C 40,45 42,41 44,39 C 46,40 50,46 54,47 C 58,46 64,38 70,36 C 76,34 84,40 92,48 C 98,52 103,56 108,59 L 108,108 L 0,108 Z"/>
      <path fill="none" stroke="#F1F5F9" stroke-width="5.5" stroke-linecap="round" d="M 16,100 Q 50,76 96,54"/>
      <path fill="#FACC15" d="M 33,63 L 33,91 Q 33,95 38.5,95 L 72.5,95 Q 78,95 78,91 L 78,75 L 72,60.5 L 40,60.5 Z"/>
      <path fill="#EAB308" d="M 37.5,57 L 73.5,57 L 76,60.5 L 35,60.5 Z"/>
      <path fill="#DC2626" d="M 41,53.5 L 70,53.5 L 70,56.8 L 41,56.8 Z"/>
      <path fill="#0F766E" d="M 39.5,69.5 L 47.5,69.5 L 47.5,75 L 39.5,75 Z"/>
      <path fill="#0F766E" d="M 60.5,69.5 L 68.5,69.5 L 68.5,75 L 60.5,75 Z"/>
      <circle cx="47.5" cy="94.5" r="4" fill="#1E293B"/>
      <circle cx="64.5" cy="94.5" r="4" fill="#1E293B"/>
      <path fill="#FACC15" d="M 54,21.5 C 48.2,21.5 42.8,27 42.8,34 C 42.8,41.5 54,52.5 54,52.5 C 54,52.5 65.2,41.5 65.2,34 C 65.2,27 59.8,21.5 54,21.5 Z"/>
      <circle cx="54" cy="28.8" r="3.8" fill="#FFFFFF"/>
    </g>
  </g>
</svg>
